HIERARCHY
ROOT Hips
{
  OFFSET -66.3176 94.32 35.3626
  CHANNELS 6 Xposition Yposition Zposition Zrotation Xrotation Yrotation
  JOINT RightUpLeg
  {
    OFFSET -8.9458 -8.66707 0.101652
    CHANNELS 3 Zrotation Xrotation Yrotation
    JOINT RightLeg
    {
      OFFSET 0 -44.4227 1.3727
      CHANNELS 3 Zrotation Xrotation Yrotation
      JOINT RightFoot
      {
        OFFSET 0.253549 -42.0924 -1.46059
        CHANNELS 3 Zrotation Xrotation Yrotation
        JOINT RightToes
        {
          OFFSET 0.04 -4.41509 8.4991
          CHANNELS 3 Zrotation Xrotation Yrotation
          End Site
          {
            OFFSET -0.08 -0.137448 9.77979
          }
        }
      }
    }
  }
  JOINT LeftUpLeg
  {
    OFFSET 8.9458 -8.66707 0.101652
    CHANNELS 3 Zrotation Xrotation Yrotation
    JOINT LeftLeg
    {
      OFFSET 0 -44.4227 1.3727
      CHANNELS 3 Zrotation Xrotation Yrotation
      JOINT LeftFoot
      {
        OFFSET -0.253549 -42.0924 -1.46059
        CHANNELS 3 Zrotation Xrotation Yrotation
        JOINT LeftToes
        {
          OFFSET -0.04 -4.41509 8.4991
          CHANNELS 3 Zrotation Xrotation Yrotation
          End Site
          {
            OFFSET 0.08 -0.047448 9.77979
          }
        }
      }
    }
  }
  JOINT Spine
  {
    OFFSET 0 11.8905 0
    CHANNELS 3 Zrotation Xrotation Yrotation
    JOINT Spine1
    {
      OFFSET 0 25.6574 0.127663
      CHANNELS 3 Zrotation Xrotation Yrotation
      JOINT HEad
      {
        OFFSET 0 8.73416 0.011341
        CHANNELS 3 Zrotation Xrotation Yrotation
        End Site
        {
          OFFSET -0.29 12.7742 2.51395
        }
      }
      JOINT LeftShoulder1
      {
        OFFSET 8.99 -0.362252 -0.22
        CHANNELS 3 Zrotation Xrotation Yrotation
        JOINT LeftArm
        {
          OFFSET 10.2827 -0.00338 0.322123
          CHANNELS 3 Zrotation Xrotation Yrotation
          JOINT LeftForeArm
          {
            OFFSET 32.7669 0.099144 -1.42434
            CHANNELS 3 Zrotation Xrotation Yrotation
            JOINT LeftHand
            {
              OFFSET 27.5643 0.085362 1.02216
              CHANNELS 3 Zrotation Xrotation Yrotation
              End Site
              {
                OFFSET 16.7443 -0.6 1.50291
              }
            }
          }
        }
      }
      JOINT RightShoulder
      {
        OFFSET -8.99 -0.362252 -0.22
        CHANNELS 3 Zrotation Xrotation Yrotation
        JOINT RightArm
        {
          OFFSET -10.2827 -0.00338 0.322123
          CHANNELS 3 Zrotation Xrotation Yrotation
          JOINT RightForeArm
          {
            OFFSET -32.8971 0.099144 -1.42434
            CHANNELS 3 Zrotation Xrotation Yrotation
            JOINT RightHand
            {
              OFFSET -27.4921 0.085362 1.02216
              CHANNELS 3 Zrotation Xrotation Yrotation
              End Site
              {
                OFFSET -16.6312 -0.6 1.50291
              }
            }
          }
        }
      }
    }
  }
}
MOTION
Frames:	15
Frame Time:	0.0166667
-84.5384 95.0474 28.2151 10.5046 -9.80482 44.9128 -16.0311 -6.07151 9.13698 38.0317 27.4197 -48.991 -31.2689 1.14338 -1.48785 0.0462048 0.000533403 0.662642 22.8422 -9.40982 -1.28608 -22.3198 20.1361 53.2209 8.63432 -3.90081 0.309967 -1.18446e-009 1.5602e-007 -4.87131e-009 -5.59449 24.9252 -4.33007 8.79954e-007 0.0071261 0.00802831 1.69437 2.92646 14.5504 7.95139e-016 -1.98785e-015 -6.36111e-015 -123.348 -47.5446 -95.1608 -41.2306 55.2167 -62.2385 19.314 17.3562 -12.9659 18.2269 8.58946 -0.29691 103.891 -12.5191 73.0247 32.3891 55.3324 88.7798 18.5757 20.0632 0.460601 
-84.2404 95.1389 28.4592 10.4743 -9.8696 45.1854 -16.2091 -5.50973 9.72687 38.536 26.5236 -49.6187 -31.006 1.04957 -1.48721 0.0462048 0.000533403 0.662642 22.7954 -9.61471 -1.00788 -22.2671 20.8104 52.8265 8.90902 -3.74612 0.337962 -1.18447e-009 1.5602e-007 -4.87131e-009 -5.65179 24.9155 -4.08681 8.79954e-007 0.0071261 0.00802831 1.5205 3.20898 15.4303 0 3.97569e-016 -0 -122.327 -47.1904 -94.1609 -40.6836 54.8972 -62.6679 19.2177 17.3506 -13.0853 18.4652 8.46375 -0.699879 103.684 -12.3524 72.8102 32.013 55.3242 89.1845 18.4457 20.1566 0.482412 
-83.9318 95.2082 28.7078 10.4272 -9.93686 45.406 -16.3784 -5.0302 10.256 39.0599 25.7568 -50.1868 -30.7804 0.968026 -1.48571 0.0462048 0.000533403 0.662642 22.8813 -9.91438 -2.03239 -22.8277 21.1112 53.8563 9.12119 -3.56425 0.351276 -1.18446e-009 1.5602e-007 -4.87131e-009 -5.69178 24.8894 -3.85051 8.79954e-007 0.0071261 0.00802831 1.36809 3.44041 16.0754 1.19271e-015 1.59028e-015 -3.18055e-015 -121.475 -46.9234 -93.3375 -40.3635 54.6634 -62.9043 19.1475 17.3059 -13.2222 18.6773 8.32208 -1.13377 103.493 -12.1233 72.607 31.6655 55.2796 89.5269 18.3564 20.2375 0.523243 
-83.6181 95.2547 28.9602 10.3643 -10.0058 45.5706 -16.5343 -4.62841 10.7297 39.5819 25.114 -50.697 -30.5819 0.896086 -1.4838 0.0462048 0.000533403 0.662642 23.0748 -10.3244 -4.22049 -23.9712 21.0861 56.1799 9.2631 -3.35272 0.350563 -1.18447e-009 1.5602e-007 -4.87131e-009 -5.7183 24.8461 -3.62696 8.79954e-007 0.0071261 0.00802831 1.23486 3.62879 16.5153 -1.98785e-015 2.78299e-015 -0 -120.754 -46.7445 -92.6671 -40.2546 54.4863 -62.9579 19.0953 17.2345 -13.3823 18.8575 8.16729 -1.588 103.32 -11.8401 72.4134 31.3569 55.203 89.8052 18.3105 20.3091 0.568356 
-83.304 95.278 29.2149 10.286 -10.0734 45.6776 -16.6739 -4.30103 11.1511 40.0878 24.5862 -51.1559 -30.4066 0.831679 -1.48158 0.0462048 0.000533403 0.662642 23.3542 -10.8827 -7.44733 -25.6574 20.7568 59.673 9.32537 -3.10725 0.336477 -1.18446e-009 1.5602e-007 -4.87131e-009 -5.73925 24.7848 -3.42208 8.79954e-007 0.0071261 0.00802831 1.11924 3.77941 16.7794 -1.98785e-015 0 -0 -120.117 -46.6465 -92.1186 -40.3163 54.3305 -62.8612 19.0598 17.1452 -13.5706 18.9857 8.00885 -2.05176 103.184 -11.5096 72.2361 31.0902 55.1019 90.0258 18.3245 20.3827 0.589389 
-82.9824 95.2824 29.4742 10.1953 -10.1351 45.7252 -16.7996 -4.036 11.5251 40.5649 24.1614 -51.5654 -30.2502 0.772807 -1.47878 0.0462048 0.000533403 0.662642 23.6133 -11.4083 -10.491 -27.3394 20.4333 63.0552 9.32581 -2.86852 0.318229 -1.18447e-009 1.5602e-007 -4.87131e-009 -5.76719 24.7081 -3.23886 8.79954e-007 0.0071261 0.00802831 1.01904 3.89523 16.8948 -3.97569e-016 1.19271e-015 -3.18055e-015 -119.524 -46.6199 -91.6634 -40.4943 54.169 -62.6622 19.0277 17.0657 -13.7766 19.0411 7.85882 -2.51565 103.109 -11.1416 72.0871 30.8668 54.9875 90.1975 18.4044 20.4577 0.563907 
-82.6468 95.2713 29.7391 10.0971 -10.1874 45.7136 -16.9167 -3.82166 11.8541 41.0055 23.831 -51.925 -30.1105 0.718589 -1.4758 0.0462048 0.000533403 0.662642 23.858 -11.9216 -13.3161 -28.9993 20.1368 66.3099 9.26464 -2.63736 0.296353 -1.18446e-009 1.5602e-007 -4.87131e-009 -5.81409 24.6203 -3.07916 8.79954e-007 0.0071261 0.00802831 0.930783 3.97859 16.8851 1.98785e-015 1.19271e-015 3.18055e-015 -118.954 -46.6619 -91.2835 -40.7411 53.9907 -62.4084 18.9991 17.007 -13.9919 19.0185 7.72798 -2.96557 103.108 -10.7572 71.9811 30.6942 54.8747 90.3199 18.5313 20.5246 0.494521 
-82.2901 95.2464 30.0099 9.99637 -10.2287 45.645 -17.0324 -3.64403 12.1394 41.4054 23.5902 -52.2303 -29.9829 0.668492 -1.47276 0.0462048 0.000533403 0.662642 24.0914 -12.4358 -15.8907 -30.6217 19.8809 69.424 9.15078 -2.41547 0.271896 -1.18447e-009 1.5602e-007 -4.87131e-009 -5.88643 24.5265 -2.94537 8.79954e-007 0.0071261 0.00802831 0.849827 4.03194 16.7715 1.59028e-015 -3.97569e-016 -9.54166e-015 -118.401 -46.7723 -90.9732 -41.0228 53.7982 -62.1319 18.9717 16.9753 -14.2066 18.9353 7.62378 -3.38906 103.172 -10.3798 71.9245 30.5845 54.7826 90.3879 18.6602 20.5673 0.405375 
-81.9062 95.2067 30.2861 9.89709 -10.2601 45.5244 -17.153 -3.49022 12.3809 41.7637 23.4387 -52.4775 -29.8617 0.622888 -1.46973 0.0462048 0.000533403 0.662642 24.3152 -12.9543 -18.1933 -32.1917 19.6679 72.3862 8.99976 -2.20543 0.246128 -1.18447e-009 1.5602e-007 -4.87131e-009 -5.98261 24.4319 -2.84087 8.79954e-007 0.0071261 0.00802831 0.771476 4.05918 16.5722 -1.19271e-015 1.19271e-015 -0 -117.869 -46.9552 -90.7314 -41.3261 53.5977 -61.8465 18.9484 16.96 -14.4156 18.8264 7.55059 -3.76053 103.276 -10.0439 71.9205 30.5484 54.7264 90.3938 18.7486 20.5802 0.324631 
-81.4907 95.1485 30.5667 9.80192 -10.2852 45.3591 -17.2824 -3.35105 12.5778 42.0835 23.3794 -52.6676 -29.7422 0.583295 -1.4666 0.0462048 0.000533403 0.662642 24.5322 -13.4706 -20.2151 -33.6926 19.4884 75.1814 8.83116 -2.01078 0.220296 -1.18447e-009 1.5602e-007 -4.87131e-009 -6.09248 24.3406 -2.76932 8.79954e-007 0.0071261 0.00802831 0.692305 4.06376 16.3036 2.38542e-015 0 -3.18055e-015 -117.364 -47.2143 -90.5599 -41.6568 53.3941 -61.5486 18.9266 16.9541 -14.6154 18.7347 7.50766 -4.06046 103.382 -9.77299 71.9619 30.5844 54.7115 90.3406 18.7675 20.5693 0.274165 
-81.0403 95.0668 30.8506 9.71228 -10.3091 45.1574 -17.4221 -3.22131 12.7301 42.3718 23.4167 -52.8072 -29.6216 0.552263 -1.46379 0.0462048 0.000533403 0.662642 24.7465 -13.9694 -21.9608 -35.1049 19.3226 77.7857 8.66579 -1.83568 0.195507 -1.18447e-009 1.5602e-007 -4.87131e-009 -6.19892 24.2564 -2.73377 8.79954e-007 0.0071261 0.00802831 0.610364 4.04852 15.9804 -1.59028e-015 -7.95139e-016 6.36111e-015 -116.891 -47.5504 -90.4616 -42.0304 53.19 -61.2272 18.9049 16.9562 -14.8075 18.6975 7.48965 -4.28202 103.455 -9.57286 72.0325 30.6743 54.7314 90.2466 18.7111 20.5478 0.266214 
-80.5517 94.9565 31.1369 9.62917 -10.3382 44.9277 -17.5723 -3.09818 12.8392 42.6388 23.5538 -52.9086 -29.4999 0.532972 -1.46085 0.0462048 0.000533403 0.662642 24.9637 -14.4287 -23.4481 -36.4066 19.1425 80.1649 8.52412 -1.68439 0.172611 -1.18447e-009 1.5602e-007 -4.87131e-009 -6.28051 24.1817 -2.73595 8.79954e-007 0.0071261 0.00802831 0.524266 4.01671 15.6157 -3.18055e-015 -1.98785e-015 3.18055e-015 -116.455 -47.9587 -90.4364 -42.4543 52.9854 -60.879 18.8787 16.9751 -14.9945 18.733 7.48864 -4.42572 103.476 -9.43833 72.1119 30.79 54.7724 90.1373 18.5921 20.5245 0.299898 
-80.0209 94.8141 31.4245 9.55329 -10.379 44.6771 -17.7333 -2.97962 12.9089 42.8957 23.7919 -52.9881 -29.3798 0.528514 -1.45835 0.0462048 0.000533403 0.662642 25.1901 -14.824 -24.7044 -37.5775 18.9188 82.2767 8.42276 -1.56045 0.152205 -1.18446e-009 1.5602e-007 -4.87131e-009 -6.31479 24.1182 -2.77586 8.79954e-007 0.0071261 0.00802831 0.432483 3.97305 15.2208 3.97569e-016 -3.97569e-016 -6.36111e-015 -116.055 -48.4299 -90.4817 -42.9214 52.7788 -60.5145 18.8455 17.0176 -15.1769 18.839 7.49678 -4.49255 103.447 -9.36207 72.1814 30.9045 54.821 90.0331 18.4351 20.5013 0.369536 
-79.4425 94.6391 31.7131 9.48466 -10.4381 44.4103 -17.9057 -2.86343 12.9446 43.1536 24.1296 -53.0632 -29.2653 0.540615 -1.45877 0.0462048 0.000533403 0.662642 25.4292 -15.1404 -25.7625 -38.6071 18.6489 84.0783 8.35785 -1.46554 0.134804 -1.18446e-009 1.5602e-007 -4.87131e-009 -6.28111 24.0659 -2.85138 7.28324e-007 0.00820824 0.00802831 0.333455 3.9237 14.8056 5.29669e-031 -3.18055e-015 9.54166e-015 -115.695 -48.9539 -90.5959 -43.4188 52.5709 -60.1491 18.8052 17.0819 -15.3531 19 7.50783 -4.48365 103.382 -9.3358 72.2278 31.0002 54.8682 89.9406 18.2634 20.4762 0.465712 
-78.8392 94.5247 31.9853 9.42914 -10.5258 44.1209 -17.9916 -2.6736 12.9578 43.1463 24.444 -52.9431 -29.1586 0.767897 -1.46592 0.0462048 0.000533403 0.662642 26.7319 -14.6402 -26.9194 -39.4787 18.0507 84.9041 -11.3044 -1.63391 -0.774328 -1.18446e-009 1.5602e-007 -4.87131e-009 -6.16877 24.0285 -2.94732 5.51864e-007 0.00946758 0.00802831 0.225357 3.87735 14.3794 -1.10348e-031 1.98785e-015 3.18055e-015 -115.386 -49.5256 -90.7783 -43.9447 52.3688 -59.7874 18.7698 17.1488 -15.5155 19.19 7.52034 -4.40599 103.302 -9.34679 72.2429 31.0677 54.9135 89.8548 18.1067 20.4514 0.569512 
